<svg xmlns="http://www.w3.org/2000/svg" xmlns:xlink="http://www.w3.org/1999/xlink" width="500" zoomAndPan="magnify" viewBox="0 0 375 374.999991" height="500" preserveAspectRatio="xMidYMid meet" version="1.0"><defs><clipPath id="7ee0b0b4c8"><path d="M 14.050781 198.328125 L 361.300781 198.328125 L 361.300781 367.828125 L 14.050781 367.828125 Z M 14.050781 198.328125 " clip-rule="nonzero"/></clipPath><clipPath id="9d910be099"><path d="M 14.050781 233 L 361.300781 233 L 361.300781 367.828125 L 14.050781 367.828125 Z M 14.050781 233 " clip-rule="nonzero"/></clipPath><clipPath id="d5f7ec6af3"><path d="M 14.050781 273 L 361.300781 273 L 361.300781 367.828125 L 14.050781 367.828125 Z M 14.050781 273 " clip-rule="nonzero"/></clipPath><clipPath id="cde9bd6905"><path d="M 14.058594 170.453125 L 361 170.453125 L 361 367.703125 L 14.058594 367.703125 Z M 14.058594 170.453125 " clip-rule="nonzero"/></clipPath><clipPath id="13c5f69ddb"><path d="M 19.304688 170.453125 L 355.683594 170.453125 C 358.585938 170.453125 360.933594 172.800781 360.933594 175.703125 L 360.933594 362.617188 C 360.933594 365.515625 358.585938 367.867188 355.683594 367.867188 L 19.304688 367.867188 C 16.40625 367.867188 14.058594 365.515625 14.058594 362.617188 L 14.058594 175.703125 C 14.058594 172.800781 16.40625 170.453125 19.304688 170.453125 Z M 19.304688 170.453125 " clip-rule="nonzero"/></clipPath><clipPath id="c082d8b6c4"><path d="M 108 7.125 L 188 7.125 L 188 50 L 108 50 Z M 108 7.125 " clip-rule="nonzero"/></clipPath><clipPath id="68597f1909"><path d="M 187 7.125 L 267 7.125 L 267 50 L 187 50 Z M 187 7.125 " clip-rule="nonzero"/></clipPath><clipPath id="a47e7eed28"><path d="M 105.03125 137 L 161 137 L 161 182 L 105.03125 182 Z M 105.03125 137 " clip-rule="nonzero"/></clipPath><clipPath id="cb3010c391"><path d="M 105.03125 139 L 188 139 L 188 212 L 105.03125 212 Z M 105.03125 139 " clip-rule="nonzero"/></clipPath></defs><g clip-path="url(#7ee0b0b4c8)"><path fill="#a7dbff" d="M 412.929688 173 C 405.800781 173.667969 398.773438 175.792969 392.292969 178.886719 C 373.054688 188.066406 358.660156 204.753906 342.023438 218.085938 C 333.027344 225.296875 323.285156 231.574219 313.023438 236.832031 C 297.453125 244.808594 280.601562 250.445312 263.234375 252.546875 C 245.867188 254.652344 227.972656 253.164062 211.464844 247.375 C 190.976562 240.195312 173.15625 226.683594 152.632812 219.605469 C 130.285156 211.902344 105.800781 212.257812 82.597656 216.75 C 59.394531 221.242188 37.175781 229.707031 15.058594 238.042969 C 14.839844 238.125 14.625 238.210938 14.402344 238.292969 L 14.402344 368.363281 L 412.929688 368.363281 Z M 412.929688 173 " fill-opacity="1" fill-rule="nonzero"/></g><g clip-path="url(#9d910be099)"><path fill="#27a7ff" d="M 412.929688 233.820312 C 405.675781 236.957031 398.730469 240.855469 391.710938 244.515625 C 369.523438 256.082031 346.074219 265.496094 321.585938 270.652344 C 297.097656 275.808594 271.515625 276.621094 247.082031 271.21875 C 227.3125 266.847656 208.683594 258.535156 189.878906 251.027344 C 171.078125 243.519531 151.636719 236.703125 131.421875 235.578125 C 104.171875 234.058594 76.675781 243.332031 55.101562 260.050781 C 47.984375 265.566406 41.480469 271.859375 34.117188 277.039062 C 28.167969 281.226562 21.492188 284.707031 14.402344 286.066406 L 14.402344 368.363281 L 412.929688 368.363281 Z M 412.929688 233.820312 " fill-opacity="1" fill-rule="nonzero"/></g><g clip-path="url(#d5f7ec6af3)"><path fill="#007ace" d="M 171.851562 273.929688 C 158.480469 273.96875 145.054688 275.785156 131.933594 278.492188 C 110.945312 282.824219 90.488281 289.394531 69.714844 294.683594 C 51.371094 299.355469 32.789062 303.03125 14.402344 307.542969 L 14.402344 368.363281 L 412.929688 368.363281 L 412.929688 276.011719 C 410.59375 276.316406 408.289062 276.894531 406.070312 277.6875 C 398.101562 280.535156 391.320312 285.875 384.277344 290.566406 C 361.015625 306.066406 332.792969 315.105469 304.988281 312.238281 C 285.84375 310.261719 267.730469 302.851562 250.082031 295.179688 C 232.433594 287.511719 214.71875 279.425781 195.789062 275.964844 C 187.878906 274.515625 179.875 273.902344 171.851562 273.929688 Z M 171.851562 273.929688 " fill-opacity="1" fill-rule="nonzero"/></g><g clip-path="url(#cde9bd6905)"><g clip-path="url(#13c5f69ddb)"><path stroke-linecap="butt" transform="matrix(0.75, 0, 0, 0.75, 14.056662, 170.451536)" fill="none" stroke-linejoin="miter" d="M 6.997368 0.00211866 L 455.502634 0.00211866 C 459.372426 0.00211866 462.502635 3.132327 462.502635 7.00212 L 462.502635 256.220902 C 462.502635 260.085486 459.372426 263.220903 455.502634 263.220903 L 6.997368 263.220903 C 3.132784 263.220903 0.00257506 260.085486 0.00257506 256.220902 L 0.00257506 7.00212 C 0.00257506 3.132327 3.132784 0.00211866 6.997368 0.00211866 Z M 6.997368 0.00211866 " stroke="#000000" stroke-width="4" stroke-opacity="1" stroke-miterlimit="4"/></g></g><g clip-path="url(#c082d8b6c4)"><path fill="#27a7ff" d="M 110.632812 37.675781 C 110.316406 37.976562 110.03125 38.300781 109.78125 38.65625 C 109.527344 39.011719 109.3125 39.386719 109.136719 39.78125 C 108.957031 40.179688 108.820312 40.585938 108.722656 41.011719 C 108.625 41.433594 108.566406 41.863281 108.554688 42.296875 C 108.539062 42.730469 108.570312 43.164062 108.640625 43.59375 C 108.710938 44.019531 108.824219 44.4375 108.976562 44.847656 C 109.128906 45.253906 109.320312 45.640625 109.546875 46.011719 C 109.777344 46.378906 110.039062 46.722656 110.335938 47.042969 L 110.367188 47.074219 C 110.664062 47.390625 110.988281 47.671875 111.339844 47.921875 C 111.691406 48.171875 112.066406 48.386719 112.460938 48.5625 C 112.855469 48.738281 113.261719 48.875 113.683594 48.972656 C 114.105469 49.070312 114.53125 49.125 114.960938 49.136719 C 115.394531 49.148438 115.824219 49.117188 116.25 49.046875 C 116.675781 48.972656 117.089844 48.859375 117.492188 48.707031 C 117.898438 48.550781 118.28125 48.359375 118.648438 48.128906 C 119.011719 47.898438 119.351562 47.636719 119.667969 47.339844 C 121.925781 45.199219 124.28125 43.171875 126.730469 41.253906 C 129.183594 39.339844 131.71875 37.542969 134.339844 35.867188 C 136.960938 34.191406 139.65625 32.644531 142.425781 31.222656 C 145.195312 29.800781 148.023438 28.515625 150.914062 27.363281 C 153.804688 26.210938 156.742188 25.199219 159.726562 24.328125 C 162.714844 23.453125 165.734375 22.722656 168.789062 22.136719 C 171.847656 21.550781 174.921875 21.109375 178.019531 20.8125 C 181.117188 20.519531 184.222656 20.371094 187.332031 20.367188 L 187.332031 7.179688 C 183.808594 7.179688 180.289062 7.34375 176.78125 7.679688 C 173.269531 8.011719 169.785156 8.507812 166.320312 9.171875 C 162.859375 9.835938 159.4375 10.660156 156.050781 11.648438 C 152.667969 12.636719 149.335938 13.78125 146.0625 15.082031 C 142.785156 16.386719 139.578125 17.839844 136.441406 19.445312 C 133.300781 21.050781 130.246094 22.804688 127.273438 24.699219 C 124.300781 26.59375 121.425781 28.625 118.644531 30.792969 C 115.867188 32.960938 113.195312 35.253906 110.632812 37.675781 Z M 110.632812 37.675781 " fill-opacity="1" fill-rule="nonzero"/></g><g clip-path="url(#68597f1909)"><path fill="#007ace" d="M 264.363281 37.675781 C 261.792969 35.25 259.117188 32.953125 256.332031 30.78125 C 253.546875 28.609375 250.664062 26.574219 247.683594 24.675781 C 244.707031 22.777344 241.644531 21.023438 238.5 19.417969 C 235.355469 17.808594 232.140625 16.355469 228.855469 15.050781 C 225.574219 13.746094 222.234375 12.601562 218.84375 11.617188 C 215.453125 10.628906 212.019531 9.808594 208.550781 9.144531 C 205.082031 8.484375 201.585938 7.992188 198.070312 7.660156 C 194.554688 7.332031 191.03125 7.167969 187.496094 7.175781 C 187.441406 7.175781 187.386719 7.179688 187.332031 7.179688 L 187.332031 20.367188 C 187.386719 20.367188 187.441406 20.363281 187.496094 20.363281 C 190.617188 20.359375 193.726562 20.503906 196.832031 20.792969 C 199.9375 21.085938 203.019531 21.523438 206.082031 22.105469 C 209.148438 22.691406 212.175781 23.417969 215.167969 24.289062 C 218.164062 25.164062 221.109375 26.175781 224.007812 27.328125 C 226.902344 28.480469 229.742188 29.765625 232.515625 31.1875 C 235.289062 32.609375 237.992188 34.160156 240.621094 35.839844 C 243.25 37.519531 245.789062 39.320312 248.246094 41.238281 C 250.703125 43.160156 253.0625 45.191406 255.328125 47.339844 C 255.640625 47.636719 255.980469 47.898438 256.347656 48.128906 C 256.710938 48.359375 257.097656 48.550781 257.5 48.707031 C 257.902344 48.859375 258.320312 48.972656 258.746094 49.046875 C 259.171875 49.117188 259.597656 49.148438 260.03125 49.136719 C 260.464844 49.125 260.890625 49.070312 261.3125 48.972656 C 261.730469 48.875 262.140625 48.738281 262.535156 48.5625 C 262.929688 48.386719 263.300781 48.171875 263.652344 47.921875 C 264.003906 47.671875 264.328125 47.390625 264.625 47.074219 L 264.660156 47.042969 C 264.957031 46.722656 265.222656 46.382812 265.453125 46.011719 C 265.683594 45.644531 265.875 45.253906 266.027344 44.847656 C 266.183594 44.441406 266.292969 44.023438 266.367188 43.59375 C 266.4375 43.164062 266.464844 42.730469 266.453125 42.296875 C 266.4375 41.863281 266.382812 41.433594 266.285156 41.007812 C 266.183594 40.585938 266.046875 40.175781 265.867188 39.777344 C 265.6875 39.382812 265.472656 39.007812 265.21875 38.652344 C 264.964844 38.300781 264.679688 37.972656 264.363281 37.675781 Z M 264.363281 37.675781 " fill-opacity="1" fill-rule="nonzero"/></g><path fill="#007ace" d="M 187.496094 53.339844 C 191.65625 53.332031 195.777344 53.714844 199.863281 54.492188 C 203.949219 55.269531 207.921875 56.425781 211.789062 57.957031 C 215.652344 59.492188 219.339844 61.375 222.847656 63.609375 C 226.351562 65.84375 229.617188 68.390625 232.640625 71.246094 C 232.953125 71.550781 233.296875 71.824219 233.664062 72.0625 C 234.03125 72.300781 234.417969 72.5 234.828125 72.664062 C 235.234375 72.824219 235.652344 72.945312 236.085938 73.023438 C 236.515625 73.101562 236.953125 73.136719 237.390625 73.128906 C 237.828125 73.121094 238.261719 73.070312 238.691406 72.976562 C 239.117188 72.882812 239.535156 72.75 239.9375 72.574219 C 240.335938 72.398438 240.71875 72.183594 241.078125 71.933594 C 241.4375 71.683594 241.769531 71.398438 242.070312 71.082031 C 242.371094 70.769531 242.632812 70.429688 242.867188 70.0625 C 243.097656 69.699219 243.289062 69.316406 243.445312 68.914062 C 243.601562 68.507812 243.714844 68.09375 243.789062 67.667969 C 243.863281 67.242188 243.894531 66.816406 243.882812 66.382812 C 243.875 65.953125 243.820312 65.523438 243.726562 65.101562 C 243.632812 64.679688 243.496094 64.273438 243.320312 63.878906 C 243.144531 63.484375 242.933594 63.109375 242.683594 62.757812 C 242.433594 62.402344 242.152344 62.078125 241.839844 61.78125 C 238.207031 58.335938 234.277344 55.265625 230.058594 52.566406 C 225.839844 49.871094 221.402344 47.59375 216.746094 45.742188 C 212.09375 43.890625 207.308594 42.492188 202.390625 41.554688 C 197.46875 40.613281 192.503906 40.144531 187.496094 40.148438 C 187.441406 40.148438 187.386719 40.152344 187.332031 40.152344 L 187.332031 53.347656 C 187.386719 53.347656 187.441406 53.339844 187.496094 53.339844 Z M 187.496094 53.339844 " fill-opacity="1" fill-rule="nonzero"/><path fill="#27a7ff" d="M 131.109375 66.53125 C 131.117188 67.375 131.277344 68.191406 131.589844 68.976562 C 131.902344 69.761719 132.347656 70.460938 132.921875 71.082031 C 133.226562 71.398438 133.558594 71.683594 133.917969 71.933594 C 134.277344 72.183594 134.65625 72.398438 135.058594 72.574219 C 135.460938 72.75 135.875 72.882812 136.304688 72.976562 C 136.730469 73.070312 137.164062 73.121094 137.605469 73.128906 C 138.042969 73.136719 138.476562 73.101562 138.910156 73.023438 C 139.339844 72.945312 139.761719 72.824219 140.167969 72.664062 C 140.574219 72.5 140.964844 72.300781 141.332031 72.0625 C 141.699219 71.824219 142.039062 71.550781 142.355469 71.246094 C 145.367188 68.398438 148.621094 65.863281 152.113281 63.632812 C 155.605469 61.402344 159.28125 59.523438 163.128906 57.992188 C 166.980469 56.460938 170.941406 55.300781 175.011719 54.523438 C 179.082031 53.742188 183.1875 53.347656 187.332031 53.347656 L 187.332031 40.152344 C 182.339844 40.160156 177.390625 40.636719 172.484375 41.582031 C 167.582031 42.527344 162.808594 43.925781 158.171875 45.777344 C 153.535156 47.628906 149.109375 49.902344 144.902344 52.59375 C 140.695312 55.285156 136.78125 58.347656 133.152344 61.78125 C 132.5 62.398438 131.996094 63.121094 131.640625 63.945312 C 131.285156 64.769531 131.109375 65.632812 131.109375 66.53125 Z M 131.109375 66.53125 " fill-opacity="1" fill-rule="nonzero"/><path fill="#007ace" d="M 187.496094 86.316406 C 189.585938 86.3125 191.65625 86.507812 193.707031 86.898438 C 195.757812 87.292969 197.753906 87.875 199.695312 88.648438 C 201.636719 89.421875 203.484375 90.371094 205.242188 91.5 C 207 92.625 208.636719 93.910156 210.152344 95.351562 C 210.460938 95.652344 210.800781 95.921875 211.167969 96.160156 C 211.53125 96.394531 211.917969 96.59375 212.320312 96.753906 C 212.726562 96.910156 213.144531 97.027344 213.570312 97.105469 C 214 97.179688 214.429688 97.210938 214.867188 97.199219 C 215.300781 97.191406 215.730469 97.136719 216.152344 97.039062 C 216.578125 96.941406 216.988281 96.804688 217.382812 96.625 C 217.78125 96.449219 218.15625 96.230469 218.507812 95.976562 C 218.863281 95.722656 219.1875 95.4375 219.484375 95.121094 L 219.515625 95.121094 C 219.8125 94.800781 220.074219 94.457031 220.300781 94.085938 C 220.527344 93.714844 220.714844 93.324219 220.867188 92.917969 C 221.019531 92.511719 221.128906 92.09375 221.199219 91.664062 C 221.269531 91.234375 221.296875 90.804688 221.28125 90.367188 C 221.265625 89.933594 221.207031 89.507812 221.109375 89.082031 C 221.007812 88.660156 220.871094 88.25 220.691406 87.855469 C 220.511719 87.457031 220.292969 87.085938 220.039062 86.730469 C 219.789062 86.378906 219.503906 86.050781 219.1875 85.753906 C 217.066406 83.742188 214.777344 81.949219 212.316406 80.375 C 209.859375 78.800781 207.269531 77.472656 204.558594 76.390625 C 201.84375 75.308594 199.050781 74.492188 196.183594 73.945312 C 193.3125 73.394531 190.417969 73.121094 187.496094 73.125 C 187.441406 73.125 187.386719 73.132812 187.332031 73.132812 L 187.332031 86.324219 C 187.386719 86.324219 187.441406 86.316406 187.496094 86.316406 Z M 187.496094 86.316406 " fill-opacity="1" fill-rule="nonzero"/><path fill="#27a7ff" d="M 153.730469 90.601562 C 153.730469 91.441406 153.886719 92.25 154.191406 93.027344 C 154.5 93.808594 154.941406 94.503906 155.511719 95.121094 C 155.808594 95.4375 156.136719 95.722656 156.488281 95.976562 C 156.84375 96.230469 157.21875 96.449219 157.617188 96.628906 C 158.015625 96.804688 158.429688 96.945312 158.851562 97.039062 C 159.277344 97.136719 159.710938 97.191406 160.144531 97.203125 C 160.582031 97.210938 161.015625 97.179688 161.445312 97.105469 C 161.875 97.027344 162.289062 96.910156 162.695312 96.753906 C 163.101562 96.59375 163.488281 96.394531 163.855469 96.160156 C 164.222656 95.925781 164.5625 95.652344 164.875 95.351562 C 166.375 93.921875 167.996094 92.644531 169.742188 91.523438 C 171.484375 90.402344 173.316406 89.457031 175.238281 88.683594 C 177.160156 87.910156 179.140625 87.324219 181.171875 86.929688 C 183.207031 86.53125 185.261719 86.328125 187.332031 86.324219 L 187.332031 73.132812 C 184.425781 73.140625 181.542969 73.421875 178.691406 73.972656 C 175.835938 74.527344 173.058594 75.34375 170.363281 76.425781 C 167.664062 77.507812 165.089844 78.832031 162.640625 80.398438 C 160.195312 81.96875 157.917969 83.753906 155.808594 85.753906 C 155.140625 86.386719 154.628906 87.121094 154.269531 87.964844 C 153.90625 88.804688 153.726562 89.683594 153.730469 90.601562 Z M 153.730469 90.601562 " fill-opacity="1" fill-rule="nonzero"/><path fill="#009245" d="M 269.9375 139.078125 C 266.542969 214.917969 187.5 211.621094 187.5 211.621094 C 187.5 211.621094 210.453125 210.203125 215.957031 181.945312 L 215.992188 181.945312 C 239.074219 155.5625 269.9375 139.078125 269.9375 139.078125 Z M 269.9375 139.078125 " fill-opacity="1" fill-rule="nonzero"/><path fill="#009245" d="M 217.179688 168.753906 C 217.214844 173.191406 216.808594 177.589844 215.957031 181.945312 C 210.453125 210.203125 187.5 211.621094 187.5 211.621094 L 187.5 102.804688 C 187.5 102.804688 207.78125 119.851562 214.804688 148.9375 C 216.390625 155.445312 217.179688 162.054688 217.179688 168.753906 Z M 217.179688 168.753906 " fill-opacity="1" fill-rule="nonzero"/><g clip-path="url(#a47e7eed28)"><path fill="#8cc63f" d="M 158.484375 148.539062 L 160.199219 148.9375 C 158.613281 155.445312 157.820312 162.054688 157.824219 168.753906 C 157.785156 173.191406 158.191406 177.589844 159.042969 181.945312 C 135.960938 155.5625 105.0625 139.078125 105.0625 139.078125 C 105.0625 139.078125 134.742188 132.910156 158.484375 148.539062 Z M 158.484375 148.539062 " fill-opacity="1" fill-rule="nonzero"/></g><path fill="#8cc63f" d="M 216.519531 148.539062 C 240.261719 132.910156 269.9375 139.078125 269.9375 139.078125 C 269.9375 139.078125 239.074219 155.5625 215.992188 181.945312 L 215.957031 181.945312 C 216.808594 177.589844 217.214844 173.191406 217.179688 168.753906 C 217.179688 162.054688 216.390625 155.445312 214.804688 148.9375 Z M 216.519531 148.539062 " fill-opacity="1" fill-rule="nonzero"/><path fill="#8cc63f" d="M 187.5 102.804688 L 187.5 211.621094 C 187.5 211.621094 164.550781 210.203125 159.042969 181.945312 C 158.191406 177.589844 157.785156 173.191406 157.824219 168.753906 C 157.820312 162.054688 158.613281 155.445312 160.199219 148.9375 C 167.222656 119.851562 187.5 102.804688 187.5 102.804688 Z M 187.5 102.804688 " fill-opacity="1" fill-rule="nonzero"/><g clip-path="url(#cb3010c391)"><path fill="#009245" d="M 187.5 211.621094 C 187.5 211.621094 108.460938 214.917969 105.0625 139.078125 C 105.0625 139.078125 135.960938 155.5625 159.042969 181.945312 C 164.550781 210.203125 187.5 211.621094 187.5 211.621094 Z M 187.5 211.621094 " fill-opacity="1" fill-rule="nonzero"/></g></svg>